<svg xmlns="http://www.w3.org/2000/svg" xmlns:xlink="http://www.w3.org/1999/xlink" width="500" zoomAndPan="magnify" viewBox="0 0 375 374.999991" height="500" preserveAspectRatio="xMidYMid meet" version="1.0"><defs><clipPath id="2d2533b540"><path d="M 46 7.328125 L 329 7.328125 L 329 176.078125 L 46 176.078125 Z M 46 7.328125 " clip-rule="nonzero"/></clipPath><clipPath id="afdfab2bc8"><path d="M 46 198.914062 L 329 198.914062 L 329 367.664062 L 46 367.664062 Z M 46 198.914062 " clip-rule="nonzero"/></clipPath></defs><g clip-path="url(#2d2533b540)"><path fill="#075755" d="M 187.496094 20.328125 C 179.628906 20.328125 172.257812 23.816406 167.277344 29.902344 L 58.886719 162.226562 C 58.683594 162.472656 58.660156 162.671875 58.792969 162.960938 C 58.933594 163.246094 59.101562 163.355469 59.417969 163.355469 L 125.214844 163.355469 C 125.429688 163.355469 125.613281 163.265625 125.75 163.101562 L 177.128906 100.375 C 177.671875 99.710938 178.28125 99.097656 178.9375 98.554688 C 178.964844 98.527344 178.996094 98.496094 179.023438 98.46875 L 179.21875 98.285156 C 179.316406 98.191406 179.417969 98.097656 179.515625 98.003906 C 179.597656 97.925781 179.679688 97.847656 179.761719 97.769531 L 179.953125 97.59375 C 180.058594 97.496094 180.164062 97.394531 180.269531 97.296875 C 180.351562 97.222656 180.429688 97.148438 180.507812 97.078125 L 180.703125 96.902344 C 180.8125 96.800781 180.917969 96.703125 181.023438 96.605469 C 181.101562 96.539062 181.179688 96.472656 181.253906 96.40625 L 181.457031 96.222656 C 181.566406 96.125 181.679688 96.023438 181.789062 95.925781 C 181.863281 95.863281 181.9375 95.796875 182.011719 95.730469 L 182.210938 95.558594 C 182.324219 95.457031 182.441406 95.359375 182.558594 95.257812 C 182.628906 95.195312 182.703125 95.132812 182.773438 95.070312 L 182.960938 94.910156 C 183.085938 94.804688 183.207031 94.703125 183.328125 94.597656 L 183.714844 94.273438 C 183.847656 94.164062 183.976562 94.058594 184.109375 93.949219 C 184.171875 93.894531 184.238281 93.839844 184.308594 93.785156 L 184.476562 93.648438 C 184.613281 93.535156 184.75 93.425781 184.886719 93.316406 L 185.273438 93.007812 C 185.410156 92.898438 185.542969 92.792969 185.675781 92.6875 L 186.035156 92.40625 C 186.175781 92.296875 186.324219 92.183594 186.464844 92.074219 L 186.808594 91.8125 C 186.957031 91.699219 187.113281 91.585938 187.261719 91.46875 L 187.597656 91.21875 C 187.753906 91.105469 187.910156 90.992188 188.066406 90.878906 L 188.375 90.648438 C 188.539062 90.53125 188.703125 90.414062 188.867188 90.292969 L 189.179688 90.074219 C 189.34375 89.960938 189.511719 89.839844 189.675781 89.726562 L 189.929688 89.550781 C 190.113281 89.425781 190.300781 89.296875 190.488281 89.167969 L 190.746094 88.996094 C 190.933594 88.867188 191.121094 88.742188 191.308594 88.617188 L 191.546875 88.460938 C 191.742188 88.335938 191.9375 88.207031 192.128906 88.082031 L 192.371094 87.929688 C 192.566406 87.804688 192.761719 87.679688 192.957031 87.558594 L 193.167969 87.425781 C 193.375 87.296875 193.582031 87.171875 193.785156 87.042969 L 193.992188 86.921875 C 194.203125 86.792969 194.410156 86.667969 194.617188 86.542969 L 194.824219 86.421875 C 195.03125 86.300781 195.242188 86.175781 195.457031 86.054688 L 195.660156 85.9375 C 195.871094 85.816406 196.082031 85.695312 196.296875 85.574219 L 196.488281 85.46875 C 196.707031 85.347656 196.921875 85.226562 197.140625 85.105469 L 197.320312 85.011719 C 197.546875 84.886719 197.765625 84.769531 197.988281 84.652344 L 198.15625 84.5625 C 198.386719 84.441406 198.613281 84.324219 198.839844 84.207031 L 199.007812 84.125 C 199.238281 84.003906 199.46875 83.890625 199.695312 83.777344 L 199.851562 83.699219 C 200.085938 83.585938 200.320312 83.46875 200.550781 83.359375 L 200.726562 83.273438 C 200.953125 83.164062 201.183594 83.054688 201.414062 82.949219 L 201.574219 82.875 C 201.808594 82.765625 202.042969 82.660156 202.277344 82.554688 L 202.425781 82.484375 C 202.667969 82.378906 202.90625 82.273438 203.144531 82.167969 L 203.296875 82.101562 C 203.535156 82 203.773438 81.898438 204.015625 81.796875 L 204.15625 81.734375 C 204.398438 81.636719 204.644531 81.535156 204.890625 81.4375 L 205.023438 81.378906 C 205.273438 81.28125 205.519531 81.183594 205.765625 81.085938 L 205.890625 81.035156 C 206.144531 80.9375 206.394531 80.84375 206.644531 80.75 L 206.769531 80.703125 C 207.023438 80.609375 207.273438 80.515625 207.523438 80.425781 L 207.65625 80.378906 C 207.90625 80.289062 208.15625 80.199219 208.410156 80.113281 L 208.539062 80.070312 C 208.792969 79.980469 209.046875 79.898438 209.296875 79.8125 L 209.417969 79.773438 C 209.671875 79.691406 209.929688 79.605469 210.1875 79.527344 L 210.292969 79.492188 C 210.554688 79.410156 210.816406 79.328125 211.074219 79.25 L 211.183594 79.21875 C 211.441406 79.140625 211.707031 79.0625 211.96875 78.988281 L 212.082031 78.957031 C 212.335938 78.882812 212.601562 78.808594 212.867188 78.738281 L 212.984375 78.703125 C 213.238281 78.636719 213.5 78.566406 213.761719 78.5 L 213.878906 78.46875 C 214.136719 78.402344 214.402344 78.335938 214.664062 78.273438 L 214.75 78.253906 C 215.027344 78.183594 215.296875 78.121094 215.5625 78.058594 L 215.679688 78.03125 C 215.941406 77.976562 216.203125 77.917969 216.464844 77.859375 L 216.558594 77.839844 C 216.835938 77.78125 217.105469 77.726562 217.371094 77.671875 L 217.453125 77.65625 C 217.738281 77.597656 218.007812 77.546875 218.277344 77.496094 L 218.363281 77.480469 C 218.640625 77.429688 218.914062 77.378906 219.1875 77.332031 L 219.273438 77.320312 C 219.546875 77.269531 219.820312 77.226562 220.097656 77.183594 L 220.183594 77.167969 C 220.457031 77.128906 220.730469 77.085938 221.007812 77.046875 L 221.089844 77.035156 C 221.367188 76.996094 221.644531 76.957031 221.917969 76.921875 L 222 76.914062 C 222.277344 76.878906 222.554688 76.84375 222.832031 76.808594 L 222.875 76.808594 C 223.171875 76.773438 223.457031 76.738281 223.746094 76.710938 L 223.800781 76.707031 C 224.09375 76.675781 224.375 76.648438 224.660156 76.625 L 224.757812 76.617188 C 225.039062 76.59375 225.308594 76.574219 225.578125 76.554688 L 225.652344 76.546875 C 225.933594 76.527344 226.214844 76.511719 226.492188 76.496094 L 226.574219 76.492188 C 226.851562 76.476562 227.132812 76.460938 227.410156 76.449219 L 227.5 76.445312 C 227.78125 76.433594 228.054688 76.421875 228.328125 76.417969 L 228.4375 76.414062 C 228.710938 76.40625 228.980469 76.398438 229.25 76.394531 L 229.386719 76.394531 C 229.644531 76.390625 229.90625 76.390625 230.167969 76.386719 L 230.304688 76.390625 C 230.890625 76.390625 231.464844 76.398438 232.003906 76.414062 C 232.074219 76.417969 232.140625 76.417969 232.210938 76.421875 L 232.410156 76.425781 C 232.582031 76.433594 232.753906 76.4375 232.925781 76.445312 C 233.230469 76.460938 233.539062 76.476562 233.84375 76.492188 C 234.4375 76.527344 235.035156 76.570312 235.625 76.617188 C 239.757812 76.972656 243.832031 77.726562 247.828125 78.871094 L 207.71875 29.902344 C 202.734375 23.816406 195.363281 20.328125 187.496094 20.328125 Z M 197.402344 99.839844 C 197.558594 100.011719 197.714844 100.191406 197.863281 100.375 L 249.246094 163.101562 C 249.382812 163.265625 249.566406 163.355469 249.777344 163.355469 L 315.574219 163.355469 C 315.894531 163.355469 316.0625 163.246094 316.199219 162.960938 C 316.335938 162.675781 316.308594 162.46875 316.109375 162.226562 L 275.574219 112.742188 L 275.515625 112.667969 C 275.371094 112.492188 275.222656 112.320312 275.078125 112.140625 L 274.941406 111.980469 C 274.859375 111.878906 274.769531 111.777344 274.683594 111.671875 L 274.03125 110.914062 C 273.953125 110.824219 273.878906 110.738281 273.800781 110.648438 L 273.621094 110.445312 C 273.488281 110.292969 273.351562 110.140625 273.21875 109.992188 L 273.167969 109.933594 C 262.390625 97.917969 249.355469 90.804688 235.476562 89.371094 C 235.222656 89.347656 234.964844 89.320312 234.710938 89.296875 L 234.585938 89.289062 C 234.105469 89.242188 233.605469 89.210938 233.113281 89.183594 C 232.742188 89.160156 232.34375 89.140625 231.902344 89.128906 L 231.753906 89.121094 C 231.386719 89.113281 230.992188 89.105469 230.585938 89.101562 L 230.417969 89.097656 C 230.007812 89.097656 229.613281 89.101562 229.238281 89.105469 L 229.113281 89.109375 C 228.273438 89.128906 227.433594 89.164062 226.605469 89.222656 L 226.554688 89.226562 C 226.160156 89.253906 225.761719 89.289062 225.328125 89.332031 L 225.210938 89.339844 C 224.800781 89.382812 224.394531 89.425781 224 89.472656 L 223.898438 89.484375 C 222.632812 89.640625 221.351562 89.84375 220.09375 90.089844 L 219.988281 90.109375 C 219.59375 90.1875 219.1875 90.273438 218.785156 90.363281 L 218.675781 90.390625 C 218.25 90.484375 217.835938 90.582031 217.445312 90.679688 L 217.410156 90.6875 C 216.582031 90.894531 215.738281 91.125 214.902344 91.375 L 214.804688 91.402344 C 214.421875 91.519531 214.019531 91.644531 213.613281 91.777344 L 213.488281 91.816406 C 213.074219 91.953125 212.675781 92.089844 212.292969 92.222656 L 212.210938 92.25 C 211.394531 92.539062 210.574219 92.851562 209.765625 93.175781 L 209.667969 93.214844 C 209.296875 93.363281 208.90625 93.527344 208.503906 93.699219 L 208.351562 93.769531 C 207.960938 93.9375 207.578125 94.105469 207.210938 94.273438 L 207.078125 94.335938 C 206.644531 94.535156 206.261719 94.714844 205.898438 94.894531 L 205.878906 94.902344 C 205.503906 95.082031 205.121094 95.273438 204.703125 95.488281 L 204.605469 95.539062 C 204.246094 95.726562 203.875 95.917969 203.476562 96.132812 L 203.304688 96.226562 C 202.933594 96.425781 202.566406 96.632812 202.207031 96.832031 L 202.035156 96.933594 C 201.632812 97.164062 201.269531 97.375 200.925781 97.582031 L 200.832031 97.636719 C 200.46875 97.855469 200.097656 98.082031 199.730469 98.3125 L 199.640625 98.371094 C 199.304688 98.578125 198.945312 98.8125 198.546875 99.070312 L 198.371094 99.1875 C 198.050781 99.402344 197.726562 99.621094 197.402344 99.839844 Z M 315.574219 176.0625 L 249.777344 176.0625 C 245.746094 176.0625 241.964844 174.273438 239.410156 171.152344 L 188.03125 108.429688 C 187.804688 108.152344 187.351562 108.097656 187.078125 108.316406 L 187.066406 108.324219 C 187.035156 108.351562 186.996094 108.386719 186.96875 108.421875 L 135.582031 171.152344 C 133.027344 174.273438 129.246094 176.0625 125.214844 176.0625 L 59.417969 176.0625 C 54.1875 176.0625 49.546875 173.128906 47.308594 168.402344 C 45.066406 163.671875 45.738281 158.21875 49.050781 154.171875 L 157.445312 21.851562 C 164.851562 12.804688 175.804688 7.617188 187.496094 7.617188 C 199.1875 7.617188 210.140625 12.804688 217.550781 21.851562 L 285.296875 104.554688 C 285.34375 104.605469 285.390625 104.664062 285.433594 104.71875 L 325.941406 154.171875 C 329.257812 158.21875 329.925781 163.671875 327.6875 168.402344 C 325.449219 173.128906 320.808594 176.0625 315.574219 176.0625 " fill-opacity="1" fill-rule="nonzero"/></g><g clip-path="url(#afdfab2bc8)"><path fill="#0c918e" d="M 187.496094 354.664062 C 195.363281 354.664062 202.734375 351.175781 207.71875 345.085938 L 316.109375 212.765625 C 316.3125 212.519531 316.335938 212.320312 316.199219 212.03125 C 316.0625 211.746094 315.894531 211.636719 315.574219 211.636719 L 249.78125 211.636719 C 249.566406 211.636719 249.382812 211.726562 249.246094 211.890625 L 197.863281 274.617188 C 197.320312 275.28125 196.714844 275.894531 196.058594 276.4375 C 196.027344 276.464844 196 276.496094 195.96875 276.523438 L 195.777344 276.707031 C 195.675781 276.800781 195.578125 276.894531 195.476562 276.988281 C 195.394531 277.066406 195.3125 277.144531 195.234375 277.222656 L 195.039062 277.394531 C 194.933594 277.496094 194.832031 277.597656 194.726562 277.695312 C 194.644531 277.769531 194.5625 277.839844 194.484375 277.914062 L 194.292969 278.089844 C 194.183594 278.191406 194.074219 278.289062 193.96875 278.382812 C 193.890625 278.453125 193.816406 278.519531 193.738281 278.585938 L 193.539062 278.769531 C 193.425781 278.867188 193.316406 278.96875 193.207031 279.0625 C 193.132812 279.128906 193.058594 279.195312 192.980469 279.261719 L 192.785156 279.433594 C 192.667969 279.535156 192.554688 279.632812 192.4375 279.734375 C 192.367188 279.796875 192.292969 279.859375 192.21875 279.921875 L 192.03125 280.082031 C 191.910156 280.1875 191.789062 280.289062 191.664062 280.394531 L 191.277344 280.714844 C 191.144531 280.828125 191.015625 280.933594 190.886719 281.042969 C 190.824219 281.097656 190.753906 281.152344 190.6875 281.203125 L 190.519531 281.34375 C 190.378906 281.457031 190.242188 281.566406 190.109375 281.675781 L 189.722656 281.984375 C 189.585938 282.09375 189.449219 282.199219 189.320312 282.304688 L 188.960938 282.582031 C 188.816406 282.695312 188.671875 282.808594 188.527344 282.917969 L 188.1875 283.179688 C 188.039062 283.292969 187.882812 283.40625 187.734375 283.523438 L 187.394531 283.773438 C 187.238281 283.886719 187.085938 284 186.929688 284.113281 L 186.617188 284.339844 C 186.453125 284.460938 186.289062 284.578125 186.125 284.699219 L 185.816406 284.914062 C 185.648438 285.03125 185.484375 285.152344 185.316406 285.265625 L 185.066406 285.441406 C 184.878906 285.566406 184.691406 285.695312 184.503906 285.824219 L 184.25 285.996094 C 184.0625 286.121094 183.875 286.25 183.6875 286.375 L 183.445312 286.53125 C 183.253906 286.65625 183.058594 286.785156 182.863281 286.910156 L 182.625 287.0625 C 182.429688 287.183594 182.234375 287.308594 182.039062 287.433594 L 181.828125 287.5625 C 181.617188 287.691406 181.414062 287.820312 181.210938 287.945312 L 181 288.070312 C 180.792969 288.199219 180.585938 288.324219 180.375 288.449219 L 180.171875 288.566406 C 179.960938 288.691406 179.75 288.816406 179.539062 288.9375 L 179.335938 289.054688 C 179.125 289.175781 178.914062 289.296875 178.699219 289.417969 L 178.503906 289.523438 C 178.289062 289.644531 178.070312 289.765625 177.851562 289.882812 L 177.675781 289.980469 C 177.449219 290.105469 177.226562 290.222656 177.007812 290.335938 L 176.839844 290.425781 C 176.609375 290.546875 176.378906 290.667969 176.15625 290.785156 L 175.988281 290.867188 C 175.753906 290.984375 175.527344 291.101562 175.300781 291.214844 L 175.144531 291.289062 C 174.90625 291.40625 174.675781 291.523438 174.441406 291.632812 L 174.269531 291.71875 C 174.042969 291.824219 173.808594 291.9375 173.578125 292.042969 L 173.421875 292.117188 C 173.1875 292.226562 172.953125 292.332031 172.714844 292.4375 L 172.570312 292.503906 C 172.324219 292.613281 172.085938 292.71875 171.847656 292.824219 L 171.699219 292.886719 C 171.460938 292.992188 171.21875 293.09375 170.980469 293.195312 L 170.835938 293.257812 C 170.597656 293.355469 170.351562 293.457031 170.105469 293.554688 L 169.96875 293.613281 C 169.722656 293.710938 169.476562 293.808594 169.230469 293.90625 L 169.101562 293.957031 C 168.847656 294.050781 168.601562 294.148438 168.351562 294.242188 L 168.226562 294.289062 C 167.972656 294.382812 167.722656 294.476562 167.46875 294.566406 L 167.335938 294.613281 C 167.089844 294.703125 166.835938 294.792969 166.585938 294.878906 L 166.453125 294.921875 C 166.199219 295.011719 165.949219 295.09375 165.699219 295.175781 L 165.578125 295.21875 C 165.324219 295.300781 165.066406 295.386719 164.808594 295.464844 L 164.703125 295.5 C 164.441406 295.582031 164.179688 295.664062 163.917969 295.742188 L 163.8125 295.773438 C 163.554688 295.851562 163.289062 295.929688 163.023438 296.003906 L 162.914062 296.035156 C 162.65625 296.109375 162.390625 296.183594 162.128906 296.253906 L 162.011719 296.289062 C 161.753906 296.355469 161.492188 296.425781 161.234375 296.492188 L 161.113281 296.519531 C 160.855469 296.589844 160.59375 296.652344 160.332031 296.71875 L 160.246094 296.738281 C 159.964844 296.808594 159.699219 296.871094 159.433594 296.929688 L 159.3125 296.957031 C 159.054688 297.015625 158.792969 297.074219 158.53125 297.132812 L 158.4375 297.152344 C 158.160156 297.210938 157.890625 297.265625 157.621094 297.320312 L 157.539062 297.335938 C 157.257812 297.394531 156.984375 297.445312 156.714844 297.496094 L 156.632812 297.507812 C 156.355469 297.5625 156.082031 297.613281 155.808594 297.65625 L 155.722656 297.671875 C 155.445312 297.71875 155.171875 297.765625 154.898438 297.808594 L 154.8125 297.824219 C 154.539062 297.863281 154.265625 297.90625 153.988281 297.945312 L 153.902344 297.957031 C 153.628906 297.996094 153.351562 298.035156 153.074219 298.070312 L 152.992188 298.078125 C 152.714844 298.113281 152.4375 298.148438 152.160156 298.183594 L 152.121094 298.183594 C 151.824219 298.21875 151.535156 298.25 151.246094 298.277344 L 151.195312 298.285156 C 150.902344 298.3125 150.617188 298.339844 150.335938 298.367188 L 150.234375 298.371094 C 149.953125 298.398438 149.683594 298.417969 149.414062 298.4375 L 149.34375 298.441406 C 149.058594 298.460938 148.78125 298.480469 148.5 298.496094 L 148.417969 298.5 C 148.140625 298.515625 147.863281 298.53125 147.582031 298.542969 L 147.496094 298.546875 C 147.214844 298.558594 146.9375 298.566406 146.664062 298.574219 L 146.558594 298.578125 C 146.285156 298.585938 146.015625 298.59375 145.746094 298.597656 L 145.609375 298.597656 C 145.347656 298.601562 145.089844 298.601562 144.828125 298.605469 L 144.6875 298.601562 C 144.101562 298.601562 143.53125 298.59375 142.988281 298.578125 C 142.921875 298.574219 142.851562 298.574219 142.785156 298.570312 L 142.585938 298.566406 C 142.414062 298.558594 142.242188 298.554688 142.070312 298.546875 C 141.761719 298.53125 141.457031 298.515625 141.148438 298.5 C 140.558594 298.464844 139.960938 298.421875 139.367188 298.371094 C 135.238281 298.019531 131.160156 297.265625 127.167969 296.121094 L 167.277344 345.085938 C 172.261719 351.175781 179.632812 354.664062 187.496094 354.664062 Z M 177.59375 275.152344 C 177.433594 274.976562 177.28125 274.800781 177.132812 274.617188 L 125.75 211.890625 C 125.613281 211.722656 125.429688 211.636719 125.214844 211.636719 L 59.417969 211.636719 C 59.101562 211.636719 58.929688 211.746094 58.796875 212.03125 C 58.660156 212.316406 58.6875 212.523438 58.886719 212.765625 L 99.417969 262.25 L 99.480469 262.320312 C 99.625 262.496094 99.769531 262.671875 99.917969 262.847656 L 100.050781 263.011719 C 100.136719 263.113281 100.222656 263.214844 100.3125 263.316406 L 100.960938 264.078125 C 101.039062 264.164062 101.117188 264.253906 101.195312 264.34375 L 101.375 264.546875 C 101.507812 264.695312 101.640625 264.847656 101.773438 265 L 101.824219 265.058594 C 112.601562 277.074219 125.640625 284.1875 139.519531 285.621094 C 139.773438 285.644531 140.027344 285.671875 140.285156 285.695312 L 140.410156 285.703125 C 140.890625 285.746094 141.386719 285.78125 141.878906 285.808594 C 142.253906 285.832031 142.652344 285.851562 143.09375 285.863281 L 143.238281 285.867188 C 143.609375 285.878906 144.003906 285.886719 144.40625 285.890625 L 144.578125 285.894531 C 144.984375 285.894531 145.382812 285.890625 145.753906 285.882812 L 145.882812 285.882812 C 146.71875 285.863281 147.5625 285.824219 148.386719 285.769531 L 148.441406 285.761719 C 148.832031 285.734375 149.234375 285.699219 149.664062 285.660156 L 149.785156 285.652344 C 150.195312 285.609375 150.601562 285.566406 150.996094 285.519531 L 151.097656 285.507812 C 152.363281 285.351562 153.640625 285.148438 154.902344 284.898438 L 155.007812 284.878906 C 155.398438 284.804688 155.808594 284.714844 156.210938 284.625 L 156.316406 284.601562 C 156.746094 284.503906 157.160156 284.410156 157.550781 284.3125 L 157.585938 284.304688 C 158.414062 284.097656 159.257812 283.867188 160.09375 283.613281 L 160.1875 283.589844 C 160.574219 283.472656 160.976562 283.347656 161.382812 283.214844 L 161.507812 283.175781 C 161.921875 283.039062 162.320312 282.902344 162.703125 282.769531 L 162.785156 282.742188 C 163.597656 282.453125 164.421875 282.140625 165.230469 281.816406 L 165.328125 281.777344 C 165.699219 281.625 166.089844 281.464844 166.488281 281.289062 L 166.640625 281.222656 C 167.03125 281.054688 167.417969 280.886719 167.785156 280.714844 L 167.914062 280.65625 C 168.351562 280.457031 168.734375 280.277344 169.097656 280.097656 L 169.117188 280.089844 C 169.488281 279.910156 169.875 279.71875 170.292969 279.5 L 170.390625 279.453125 C 170.75 279.265625 171.117188 279.074219 171.515625 278.859375 L 171.6875 278.765625 C 172.058594 278.566406 172.429688 278.359375 172.785156 278.15625 L 172.960938 278.058594 C 173.363281 277.828125 173.726562 277.613281 174.070312 277.410156 L 174.160156 277.351562 C 174.523438 277.136719 174.894531 276.90625 175.261719 276.679688 L 175.355469 276.621094 C 175.6875 276.410156 176.046875 276.179688 176.445312 275.921875 L 176.625 275.804688 C 176.945312 275.589844 177.269531 275.371094 177.59375 275.152344 Z M 59.417969 198.929688 L 125.214844 198.929688 C 129.25 198.929688 133.03125 200.71875 135.582031 203.839844 L 186.964844 266.5625 C 187.1875 266.835938 187.644531 266.890625 187.914062 266.675781 L 187.925781 266.667969 C 187.960938 266.640625 187.996094 266.605469 188.027344 266.566406 L 239.414062 203.835938 C 241.96875 200.71875 245.746094 198.929688 249.78125 198.929688 L 315.574219 198.929688 C 320.808594 198.929688 325.445312 201.863281 327.6875 206.589844 C 329.925781 211.320312 329.257812 216.769531 325.941406 220.820312 L 217.550781 353.140625 C 210.144531 362.183594 199.191406 367.375 187.496094 367.375 C 175.808594 367.375 164.851562 362.183594 157.445312 353.140625 L 89.699219 270.4375 C 89.652344 270.382812 89.605469 270.328125 89.5625 270.273438 L 49.050781 220.820312 C 45.738281 216.769531 45.070312 211.320312 47.308594 206.589844 C 49.546875 201.863281 54.1875 198.929688 59.417969 198.929688 " fill-opacity="1" fill-rule="nonzero"/></g></svg>