<svg xmlns="http://www.w3.org/2000/svg" xmlns:xlink="http://www.w3.org/1999/xlink" width="500" zoomAndPan="magnify" viewBox="0 0 375 374.999991" height="500" preserveAspectRatio="xMidYMid meet" version="1.0"><defs><g/><clipPath id="8743b83961"><path d="M 86.046875 7.703125 L 280 7.703125 L 280 122.453125 L 86.046875 122.453125 Z M 86.046875 7.703125 " clip-rule="nonzero"/></clipPath><clipPath id="4353fa9754"><path d="M 86.199219 138.007812 L 280 138.007812 L 280 252.757812 L 86.199219 252.757812 Z M 86.199219 138.007812 " clip-rule="nonzero"/></clipPath></defs><g fill="#0c918e" fill-opacity="1"><g transform="translate(116.018657, 308.609975)"><g><path d="M 1.296875 -28.984375 L -0.859375 -29.625 L -0.859375 -30.28125 L 4.328125 -30.28125 C 5.828125 -30.28125 7.050781 -29.941406 8 -29.265625 C 8.945312 -28.585938 9.664062 -27.695312 10.15625 -26.59375 L 17.8125 -9.171875 L 24.875 -28.328125 L 21.625 -29.625 L 21.625 -30.28125 L 29.625 -30.28125 L 29.625 -29.625 L 26.171875 -28.328125 L 15.5625 0.4375 L 14.265625 0.4375 Z M 1.296875 -28.984375 "/></g></g></g><g fill="#0c918e" fill-opacity="1"><g transform="translate(147.068318, 308.609975)"><g><path d="M 2.15625 -0.65625 L 4.75 -1.296875 L 4.75 -28.984375 L 2.15625 -29.625 L 2.15625 -30.28125 L 25.296875 -30.28125 L 25.296875 -22.484375 L 24 -22.484375 C 23.457031 -22.921875 22.984375 -23.472656 22.578125 -24.140625 C 21.648438 -25.691406 21.1875 -27.375 21.1875 -29.1875 L 11.890625 -29.1875 L 11.890625 -15.5625 L 16.875 -15.5625 C 17.070312 -16.664062 17.441406 -17.691406 17.984375 -18.640625 C 18.222656 -19.078125 18.5 -19.492188 18.8125 -19.890625 L 20.109375 -19.890625 L 20.109375 -10.15625 L 18.8125 -10.15625 C 18.5 -10.5625 18.222656 -10.984375 17.984375 -11.421875 C 17.441406 -12.367188 17.070312 -13.390625 16.875 -14.484375 L 11.890625 -14.484375 L 11.890625 -1.078125 L 22.0625 -1.078125 C 22.0625 -2.898438 22.519531 -4.585938 23.4375 -6.140625 C 23.84375 -6.804688 24.320312 -7.351562 24.875 -7.78125 L 26.171875 -7.78125 L 26.171875 0 L 2.15625 0 Z M 2.15625 -0.65625 "/></g></g></g><g fill="#0c918e" fill-opacity="1"><g transform="translate(177.253113, 308.609975)"><g><path d="M 2.15625 -0.65625 L 4.75 -1.296875 L 4.75 -28.984375 L 2.15625 -29.625 L 2.15625 -30.28125 L 25.296875 -30.28125 L 25.296875 -22.484375 L 24 -22.484375 C 23.457031 -22.921875 22.984375 -23.472656 22.578125 -24.140625 C 21.648438 -25.691406 21.1875 -27.375 21.1875 -29.1875 L 11.890625 -29.1875 L 11.890625 -15.5625 L 16.875 -15.5625 C 17.070312 -16.664062 17.441406 -17.691406 17.984375 -18.640625 C 18.222656 -19.078125 18.5 -19.492188 18.8125 -19.890625 L 20.109375 -19.890625 L 20.109375 -10.15625 L 18.8125 -10.15625 C 18.5 -10.5625 18.222656 -10.984375 17.984375 -11.421875 C 17.441406 -12.367188 17.070312 -13.390625 16.875 -14.484375 L 11.890625 -14.484375 L 11.890625 -1.078125 L 22.0625 -1.078125 C 22.0625 -2.898438 22.519531 -4.585938 23.4375 -6.140625 C 23.84375 -6.804688 24.320312 -7.351562 24.875 -7.78125 L 26.171875 -7.78125 L 26.171875 0 L 2.15625 0 Z M 2.15625 -0.65625 "/></g></g></g><g fill="#0c918e" fill-opacity="1"><g transform="translate(207.437905, 308.609975)"><g><path d="M 2.15625 -0.65625 L 4.75 -1.296875 L 4.75 -28.984375 L 2.15625 -29.625 L 2.15625 -30.28125 L 13.625 -30.28125 C 18.519531 -30.28125 22.050781 -29.535156 24.21875 -28.046875 C 26.382812 -26.554688 27.46875 -24.488281 27.46875 -21.84375 C 27.46875 -20.050781 26.988281 -18.597656 26.03125 -17.484375 C 25.082031 -16.378906 23.859375 -15.550781 22.359375 -15 C 20.773438 -14.394531 19.085938 -14.082031 17.296875 -14.0625 L 17.296875 -13.84375 C 18.367188 -13.78125 19.304688 -13.617188 20.109375 -13.359375 C 22.128906 -12.722656 23.5 -11.585938 24.21875 -9.953125 L 28.109375 -1.296875 L 30.28125 -0.65625 L 30.28125 0 L 24.21875 0 C 21.851562 0 20.125 -1.222656 19.03125 -3.671875 L 14.703125 -13.40625 L 11.890625 -13.40625 L 11.890625 -1.296875 L 14.921875 -0.65625 L 14.921875 0 L 2.15625 0 Z M 13.625 -14.484375 C 15.644531 -14.484375 17.226562 -15.117188 18.375 -16.390625 C 19.53125 -17.660156 20.109375 -19.476562 20.109375 -21.84375 C 20.109375 -24.207031 19.53125 -26.019531 18.375 -27.28125 C 17.226562 -28.550781 15.644531 -29.1875 13.625 -29.1875 L 11.890625 -29.1875 L 11.890625 -14.484375 Z M 13.625 -14.484375 "/></g></g></g><g fill="#0c918e" fill-opacity="1"><g transform="translate(240.00109, 308.609975)"><g><path d="M 7.5625 -0.65625 L 10.15625 -1.296875 L 10.15625 -29.1875 L 5.1875 -29.1875 C 5.1875 -27.4375 4.710938 -25.753906 3.765625 -24.140625 C 3.359375 -23.472656 2.894531 -22.921875 2.375 -22.484375 L 1.078125 -22.484375 L 1.078125 -30.28125 L 26.375 -30.28125 L 26.375 -22.484375 L 25.078125 -22.484375 C 24.535156 -22.921875 24.0625 -23.472656 23.65625 -24.140625 C 22.738281 -25.691406 22.28125 -27.375 22.28125 -29.1875 L 17.296875 -29.1875 L 17.296875 -1.296875 L 19.890625 -0.65625 L 19.890625 0 L 7.5625 0 Z M 7.5625 -0.65625 "/></g></g></g><g fill="#1a3038" fill-opacity="1"><g transform="translate(94.599291, 339.114329)"><g><path d="M 1.0625 -0.3125 L 2.328125 -0.640625 L 2.328125 -14.15625 L 1.0625 -14.46875 L 1.0625 -14.78125 L 6.765625 -14.78125 C 8.898438 -14.78125 10.46875 -14.4375 11.46875 -13.75 C 12.476562 -13.070312 12.984375 -12.1875 12.984375 -11.09375 C 12.984375 -10.332031 12.765625 -9.71875 12.328125 -9.25 C 11.898438 -8.789062 11.347656 -8.445312 10.671875 -8.21875 C 9.953125 -7.96875 9.175781 -7.832031 8.34375 -7.8125 L 8.34375 -7.703125 C 9.375 -7.660156 10.269531 -7.507812 11.03125 -7.25 C 11.800781 -6.988281 12.441406 -6.59375 12.953125 -6.0625 C 13.472656 -5.53125 13.734375 -4.847656 13.734375 -4.015625 C 13.734375 -2.765625 13.21875 -1.78125 12.1875 -1.0625 C 11.15625 -0.351562 9.488281 0 7.1875 0 L 1.0625 0 Z M 6.765625 -8.03125 C 7.222656 -8.03125 7.648438 -8.160156 8.046875 -8.421875 C 8.453125 -8.679688 8.78125 -9.046875 9.03125 -9.515625 C 9.28125 -9.984375 9.40625 -10.507812 9.40625 -11.09375 C 9.40625 -11.707031 9.28125 -12.253906 9.03125 -12.734375 C 8.78125 -13.210938 8.453125 -13.585938 8.046875 -13.859375 C 7.648438 -14.128906 7.222656 -14.265625 6.765625 -14.265625 L 5.8125 -14.265625 L 5.8125 -8.03125 Z M 7.1875 -0.53125 C 8.0625 -0.53125 8.769531 -0.835938 9.3125 -1.453125 C 9.863281 -2.078125 10.140625 -2.929688 10.140625 -4.015625 C 10.140625 -5.097656 9.863281 -5.945312 9.3125 -6.5625 C 8.769531 -7.1875 8.0625 -7.5 7.1875 -7.5 L 5.8125 -7.5 L 5.8125 -0.53125 Z M 7.1875 -0.53125 "/></g></g></g><g fill="#1a3038" fill-opacity="1"><g transform="translate(119.363931, 339.114329)"><g><path d="M 8.34375 0.3125 C 6.257812 0.3125 4.679688 -0.175781 3.609375 -1.15625 C 2.535156 -2.132812 2 -3.507812 2 -5.28125 L 2 -14.15625 L 0.734375 -14.46875 L 0.734375 -14.78125 L 6.765625 -14.78125 L 6.765625 -14.46875 L 5.5 -14.15625 L 5.5 -5.28125 C 5.5 -3.46875 5.78125 -2.171875 6.34375 -1.390625 C 6.90625 -0.609375 7.710938 -0.21875 8.765625 -0.21875 C 9.410156 -0.21875 10.023438 -0.421875 10.609375 -0.828125 C 11.191406 -1.242188 11.660156 -1.835938 12.015625 -2.609375 C 12.378906 -3.378906 12.5625 -4.269531 12.5625 -5.28125 L 12.5625 -13.84375 L 10.875 -14.46875 L 10.875 -14.78125 L 14.890625 -14.78125 L 14.890625 -14.46875 L 13.203125 -13.84375 L 13.203125 -5.28125 C 13.203125 -4.132812 12.988281 -3.140625 12.5625 -2.296875 C 12.144531 -1.453125 11.566406 -0.804688 10.828125 -0.359375 C 10.097656 0.0859375 9.269531 0.3125 8.34375 0.3125 Z M 8.34375 0.3125 "/></g></g></g><g fill="#1a3038" fill-opacity="1"><g transform="translate(144.762394, 339.114329)"><g><path d="M 6.234375 0.3125 C 5.234375 0.3125 4.296875 0.0859375 3.421875 -0.359375 C 3.023438 -0.554688 2.691406 -0.789062 2.421875 -1.0625 C 2.234375 -0.738281 1.988281 -0.445312 1.6875 -0.1875 C 1.4375 -0.0078125 1.296875 0.0859375 1.265625 0.109375 L 0.734375 0.109375 L 0.734375 -3.90625 L 1.578125 -3.90625 C 1.796875 -3.21875 2.09375 -2.597656 2.46875 -2.046875 C 3.332031 -0.828125 4.445312 -0.21875 5.8125 -0.21875 C 6.613281 -0.21875 7.253906 -0.453125 7.734375 -0.921875 C 8.210938 -1.398438 8.453125 -2.046875 8.453125 -2.859375 C 8.453125 -3.316406 8.3125 -3.726562 8.03125 -4.09375 C 7.757812 -4.457031 7.421875 -4.78125 7.015625 -5.0625 C 6.609375 -5.351562 6.035156 -5.707031 5.296875 -6.125 C 4.367188 -6.644531 3.613281 -7.113281 3.03125 -7.53125 C 2.457031 -7.957031 1.96875 -8.488281 1.5625 -9.125 C 1.15625 -9.769531 0.953125 -10.53125 0.953125 -11.40625 C 0.953125 -12.09375 1.144531 -12.710938 1.53125 -13.265625 C 1.914062 -13.828125 2.492188 -14.273438 3.265625 -14.609375 C 4.046875 -14.941406 5 -15.109375 6.125 -15.109375 C 6.9375 -15.109375 7.753906 -14.875 8.578125 -14.40625 C 8.890625 -14.238281 9.195312 -14.015625 9.5 -13.734375 C 9.738281 -14.097656 9.988281 -14.382812 10.25 -14.59375 C 10.5 -14.78125 10.640625 -14.878906 10.671875 -14.890625 L 11.203125 -14.890625 L 11.203125 -10.875 L 10.34375 -10.875 C 10.164062 -11.550781 9.894531 -12.164062 9.53125 -12.71875 C 9.1875 -13.25 8.765625 -13.691406 8.265625 -14.046875 C 7.765625 -14.398438 7.191406 -14.578125 6.546875 -14.578125 C 5.992188 -14.578125 5.519531 -14.359375 5.125 -13.921875 C 4.738281 -13.484375 4.546875 -12.925781 4.546875 -12.25 C 4.546875 -11.726562 4.695312 -11.257812 5 -10.84375 C 5.300781 -10.425781 5.671875 -10.0625 6.109375 -9.75 C 6.554688 -9.445312 7.160156 -9.078125 7.921875 -8.640625 C 8.804688 -8.128906 9.523438 -7.675781 10.078125 -7.28125 C 10.628906 -6.894531 11.09375 -6.40625 11.46875 -5.8125 C 11.851562 -5.226562 12.046875 -4.554688 12.046875 -3.796875 C 12.046875 -3.035156 11.828125 -2.34375 11.390625 -1.71875 C 10.953125 -1.09375 10.296875 -0.597656 9.421875 -0.234375 C 8.546875 0.128906 7.484375 0.3125 6.234375 0.3125 Z M 6.234375 0.3125 "/></g></g></g><g fill="#1a3038" fill-opacity="1"><g transform="translate(167.731219, 339.114329)"><g><path d="M 1.0625 0 L 1.0625 -0.3125 L 2.328125 -0.640625 L 2.328125 -14.15625 L 1.0625 -14.46875 L 1.0625 -14.78125 L 7.078125 -14.78125 L 7.078125 -14.46875 L 5.8125 -14.15625 L 5.8125 -0.640625 L 7.078125 -0.3125 L 7.078125 0 Z M 1.0625 0 "/></g></g></g><g fill="#1a3038" fill-opacity="1"><g transform="translate(186.263343, 339.114329)"><g><path d="M 2.953125 -11.203125 L 2.953125 -0.953125 L 4.640625 -0.3125 L 4.640625 0 L 0.640625 0 L 0.640625 -0.3125 L 2.328125 -0.953125 L 2.328125 -14.046875 L 0.84375 -14.46875 L 0.84375 -14.78125 L 3.0625 -14.78125 C 3.8125 -14.78125 4.394531 -14.644531 4.8125 -14.375 C 5.238281 -14.113281 5.640625 -13.757812 6.015625 -13.3125 L 12.78125 -5.390625 L 12.78125 -13.84375 L 11.09375 -14.46875 L 11.09375 -14.78125 L 15.109375 -14.78125 L 15.109375 -14.46875 L 13.421875 -13.84375 L 13.421875 0.3125 L 12.78125 0.3125 Z M 2.953125 -11.203125 "/></g></g></g><g fill="#1a3038" fill-opacity="1"><g transform="translate(212.295614, 339.114329)"><g><path d="M 1.0625 -0.3125 L 2.328125 -0.640625 L 2.328125 -14.15625 L 1.0625 -14.46875 L 1.0625 -14.78125 L 12.359375 -14.78125 L 12.359375 -10.984375 L 11.71875 -10.984375 C 11.457031 -11.191406 11.226562 -11.457031 11.03125 -11.78125 C 10.570312 -12.539062 10.34375 -13.367188 10.34375 -14.265625 L 5.8125 -14.265625 L 5.8125 -7.609375 L 8.234375 -7.609375 C 8.335938 -8.140625 8.519531 -8.640625 8.78125 -9.109375 C 8.894531 -9.316406 9.03125 -9.519531 9.1875 -9.71875 L 9.828125 -9.71875 L 9.828125 -4.96875 L 9.1875 -4.96875 C 9.03125 -5.164062 8.894531 -5.367188 8.78125 -5.578125 C 8.519531 -6.046875 8.335938 -6.546875 8.234375 -7.078125 L 5.8125 -7.078125 L 5.8125 -0.53125 L 10.78125 -0.53125 C 10.78125 -1.414062 11.003906 -2.238281 11.453125 -3 C 11.648438 -3.320312 11.878906 -3.585938 12.140625 -3.796875 L 12.78125 -3.796875 L 12.78125 0 L 1.0625 0 Z M 1.0625 -0.3125 "/></g></g></g><g fill="#1a3038" fill-opacity="1"><g transform="translate(236.320807, 339.114329)"><g><path d="M 6.234375 0.3125 C 5.234375 0.3125 4.296875 0.0859375 3.421875 -0.359375 C 3.023438 -0.554688 2.691406 -0.789062 2.421875 -1.0625 C 2.234375 -0.738281 1.988281 -0.445312 1.6875 -0.1875 C 1.4375 -0.0078125 1.296875 0.0859375 1.265625 0.109375 L 0.734375 0.109375 L 0.734375 -3.90625 L 1.578125 -3.90625 C 1.796875 -3.21875 2.09375 -2.597656 2.46875 -2.046875 C 3.332031 -0.828125 4.445312 -0.21875 5.8125 -0.21875 C 6.613281 -0.21875 7.253906 -0.453125 7.734375 -0.921875 C 8.210938 -1.398438 8.453125 -2.046875 8.453125 -2.859375 C 8.453125 -3.316406 8.3125 -3.726562 8.03125 -4.09375 C 7.757812 -4.457031 7.421875 -4.78125 7.015625 -5.0625 C 6.609375 -5.351562 6.035156 -5.707031 5.296875 -6.125 C 4.367188 -6.644531 3.613281 -7.113281 3.03125 -7.53125 C 2.457031 -7.957031 1.96875 -8.488281 1.5625 -9.125 C 1.15625 -9.769531 0.953125 -10.53125 0.953125 -11.40625 C 0.953125 -12.09375 1.144531 -12.710938 1.53125 -13.265625 C 1.914062 -13.828125 2.492188 -14.273438 3.265625 -14.609375 C 4.046875 -14.941406 5 -15.109375 6.125 -15.109375 C 6.9375 -15.109375 7.753906 -14.875 8.578125 -14.40625 C 8.890625 -14.238281 9.195312 -14.015625 9.5 -13.734375 C 9.738281 -14.097656 9.988281 -14.382812 10.25 -14.59375 C 10.5 -14.78125 10.640625 -14.878906 10.671875 -14.890625 L 11.203125 -14.890625 L 11.203125 -10.875 L 10.34375 -10.875 C 10.164062 -11.550781 9.894531 -12.164062 9.53125 -12.71875 C 9.1875 -13.25 8.765625 -13.691406 8.265625 -14.046875 C 7.765625 -14.398438 7.191406 -14.578125 6.546875 -14.578125 C 5.992188 -14.578125 5.519531 -14.359375 5.125 -13.921875 C 4.738281 -13.484375 4.546875 -12.925781 4.546875 -12.25 C 4.546875 -11.726562 4.695312 -11.257812 5 -10.84375 C 5.300781 -10.425781 5.671875 -10.0625 6.109375 -9.75 C 6.554688 -9.445312 7.160156 -9.078125 7.921875 -8.640625 C 8.804688 -8.128906 9.523438 -7.675781 10.078125 -7.28125 C 10.628906 -6.894531 11.09375 -6.40625 11.46875 -5.8125 C 11.851562 -5.226562 12.046875 -4.554688 12.046875 -3.796875 C 12.046875 -3.035156 11.828125 -2.34375 11.390625 -1.71875 C 10.953125 -1.09375 10.296875 -0.597656 9.421875 -0.234375 C 8.546875 0.128906 7.484375 0.3125 6.234375 0.3125 Z M 6.234375 0.3125 "/></g></g></g><g fill="#1a3038" fill-opacity="1"><g transform="translate(259.289632, 339.114329)"><g><path d="M 6.234375 0.3125 C 5.234375 0.3125 4.296875 0.0859375 3.421875 -0.359375 C 3.023438 -0.554688 2.691406 -0.789062 2.421875 -1.0625 C 2.234375 -0.738281 1.988281 -0.445312 1.6875 -0.1875 C 1.4375 -0.0078125 1.296875 0.0859375 1.265625 0.109375 L 0.734375 0.109375 L 0.734375 -3.90625 L 1.578125 -3.90625 C 1.796875 -3.21875 2.09375 -2.597656 2.46875 -2.046875 C 3.332031 -0.828125 4.445312 -0.21875 5.8125 -0.21875 C 6.613281 -0.21875 7.253906 -0.453125 7.734375 -0.921875 C 8.210938 -1.398438 8.453125 -2.046875 8.453125 -2.859375 C 8.453125 -3.316406 8.3125 -3.726562 8.03125 -4.09375 C 7.757812 -4.457031 7.421875 -4.78125 7.015625 -5.0625 C 6.609375 -5.351562 6.035156 -5.707031 5.296875 -6.125 C 4.367188 -6.644531 3.613281 -7.113281 3.03125 -7.53125 C 2.457031 -7.957031 1.96875 -8.488281 1.5625 -9.125 C 1.15625 -9.769531 0.953125 -10.53125 0.953125 -11.40625 C 0.953125 -12.09375 1.144531 -12.710938 1.53125 -13.265625 C 1.914062 -13.828125 2.492188 -14.273438 3.265625 -14.609375 C 4.046875 -14.941406 5 -15.109375 6.125 -15.109375 C 6.9375 -15.109375 7.753906 -14.875 8.578125 -14.40625 C 8.890625 -14.238281 9.195312 -14.015625 9.5 -13.734375 C 9.738281 -14.097656 9.988281 -14.382812 10.25 -14.59375 C 10.5 -14.78125 10.640625 -14.878906 10.671875 -14.890625 L 11.203125 -14.890625 L 11.203125 -10.875 L 10.34375 -10.875 C 10.164062 -11.550781 9.894531 -12.164062 9.53125 -12.71875 C 9.1875 -13.25 8.765625 -13.691406 8.265625 -14.046875 C 7.765625 -14.398438 7.191406 -14.578125 6.546875 -14.578125 C 5.992188 -14.578125 5.519531 -14.359375 5.125 -13.921875 C 4.738281 -13.484375 4.546875 -12.925781 4.546875 -12.25 C 4.546875 -11.726562 4.695312 -11.257812 5 -10.84375 C 5.300781 -10.425781 5.671875 -10.0625 6.109375 -9.75 C 6.554688 -9.445312 7.160156 -9.078125 7.921875 -8.640625 C 8.804688 -8.128906 9.523438 -7.675781 10.078125 -7.28125 C 10.628906 -6.894531 11.09375 -6.40625 11.46875 -5.8125 C 11.851562 -5.226562 12.046875 -4.554688 12.046875 -3.796875 C 12.046875 -3.035156 11.828125 -2.34375 11.390625 -1.71875 C 10.953125 -1.09375 10.296875 -0.597656 9.421875 -0.234375 C 8.546875 0.128906 7.484375 0.3125 6.234375 0.3125 Z M 6.234375 0.3125 "/></g></g></g><g fill="#1a3038" fill-opacity="1"><g transform="translate(87.787824, 368.669167)"><g><path d="M 6.234375 0.3125 C 5.234375 0.3125 4.296875 0.0859375 3.421875 -0.359375 C 3.023438 -0.554688 2.691406 -0.789062 2.421875 -1.0625 C 2.234375 -0.738281 1.988281 -0.445312 1.6875 -0.1875 C 1.4375 -0.0078125 1.296875 0.0859375 1.265625 0.109375 L 0.734375 0.109375 L 0.734375 -3.90625 L 1.578125 -3.90625 C 1.796875 -3.21875 2.09375 -2.597656 2.46875 -2.046875 C 3.332031 -0.828125 4.445312 -0.21875 5.8125 -0.21875 C 6.613281 -0.21875 7.253906 -0.453125 7.734375 -0.921875 C 8.210938 -1.398438 8.453125 -2.046875 8.453125 -2.859375 C 8.453125 -3.316406 8.3125 -3.726562 8.03125 -4.09375 C 7.757812 -4.457031 7.421875 -4.78125 7.015625 -5.0625 C 6.609375 -5.351562 6.035156 -5.707031 5.296875 -6.125 C 4.367188 -6.644531 3.613281 -7.113281 3.03125 -7.53125 C 2.457031 -7.957031 1.96875 -8.488281 1.5625 -9.125 C 1.15625 -9.769531 0.953125 -10.53125 0.953125 -11.40625 C 0.953125 -12.09375 1.144531 -12.710938 1.53125 -13.265625 C 1.914062 -13.828125 2.492188 -14.273438 3.265625 -14.609375 C 4.046875 -14.941406 5 -15.109375 6.125 -15.109375 C 6.9375 -15.109375 7.753906 -14.875 8.578125 -14.40625 C 8.890625 -14.238281 9.195312 -14.015625 9.5 -13.734375 C 9.738281 -14.097656 9.988281 -14.382812 10.25 -14.59375 C 10.5 -14.78125 10.640625 -14.878906 10.671875 -14.890625 L 11.203125 -14.890625 L 11.203125 -10.875 L 10.34375 -10.875 C 10.164062 -11.550781 9.894531 -12.164062 9.53125 -12.71875 C 9.1875 -13.25 8.765625 -13.691406 8.265625 -14.046875 C 7.765625 -14.398438 7.191406 -14.578125 6.546875 -14.578125 C 5.992188 -14.578125 5.519531 -14.359375 5.125 -13.921875 C 4.738281 -13.484375 4.546875 -12.925781 4.546875 -12.25 C 4.546875 -11.726562 4.695312 -11.257812 5 -10.84375 C 5.300781 -10.425781 5.671875 -10.0625 6.109375 -9.75 C 6.554688 -9.445312 7.160156 -9.078125 7.921875 -8.640625 C 8.804688 -8.128906 9.523438 -7.675781 10.078125 -7.28125 C 10.628906 -6.894531 11.09375 -6.40625 11.46875 -5.8125 C 11.851562 -5.226562 12.046875 -4.554688 12.046875 -3.796875 C 12.046875 -3.035156 11.828125 -2.34375 11.390625 -1.71875 C 10.953125 -1.09375 10.296875 -0.597656 9.421875 -0.234375 C 8.546875 0.128906 7.484375 0.3125 6.234375 0.3125 Z M 6.234375 0.3125 "/></g></g></g><g fill="#1a3038" fill-opacity="1"><g transform="translate(110.75665, 368.669167)"><g><path d="M 7.8125 0.3125 C 6.4375 0.3125 5.226562 0.015625 4.1875 -0.578125 C 3.15625 -1.179688 2.359375 -2.054688 1.796875 -3.203125 C 1.234375 -4.359375 0.953125 -5.753906 0.953125 -7.390625 C 0.953125 -9.023438 1.234375 -10.421875 1.796875 -11.578125 C 2.359375 -12.734375 3.15625 -13.609375 4.1875 -14.203125 C 5.226562 -14.804688 6.4375 -15.109375 7.8125 -15.109375 C 9.195312 -15.109375 10.40625 -14.804688 11.4375 -14.203125 C 12.46875 -13.609375 13.265625 -12.734375 13.828125 -11.578125 C 14.398438 -10.421875 14.6875 -9.023438 14.6875 -7.390625 C 14.6875 -5.753906 14.398438 -4.359375 13.828125 -3.203125 C 13.265625 -2.054688 12.46875 -1.179688 11.4375 -0.578125 C 10.40625 0.015625 9.195312 0.3125 7.8125 0.3125 Z M 7.8125 -0.109375 C 8.363281 -0.109375 8.875 -0.335938 9.34375 -0.796875 C 9.820312 -1.265625 10.210938 -2.039062 10.515625 -3.125 C 10.828125 -4.207031 10.984375 -5.628906 10.984375 -7.390625 C 10.984375 -9.148438 10.828125 -10.570312 10.515625 -11.65625 C 10.210938 -12.738281 9.820312 -13.515625 9.34375 -13.984375 C 8.875 -14.453125 8.363281 -14.6875 7.8125 -14.6875 C 7.269531 -14.6875 6.757812 -14.453125 6.28125 -13.984375 C 5.8125 -13.515625 5.421875 -12.738281 5.109375 -11.65625 C 4.796875 -10.570312 4.640625 -9.148438 4.640625 -7.390625 C 4.640625 -5.628906 4.796875 -4.207031 5.109375 -3.125 C 5.421875 -2.039062 5.8125 -1.265625 6.28125 -0.796875 C 6.757812 -0.335938 7.269531 -0.109375 7.8125 -0.109375 Z M 7.8125 -0.109375 "/></g></g></g><g fill="#1a3038" fill-opacity="1"><g transform="translate(136.788921, 368.669167)"><g><path d="M 1.0625 -0.3125 L 2.328125 -0.640625 L 2.328125 -14.15625 L 1.0625 -14.46875 L 1.0625 -14.78125 L 12.359375 -14.78125 L 12.359375 -10.984375 L 11.71875 -10.984375 C 11.457031 -11.191406 11.226562 -11.457031 11.03125 -11.78125 C 10.570312 -12.539062 10.34375 -13.367188 10.34375 -14.265625 L 5.8125 -14.265625 L 5.8125 -7.609375 L 8.234375 -7.609375 C 8.335938 -8.140625 8.519531 -8.640625 8.78125 -9.109375 C 8.894531 -9.316406 9.03125 -9.519531 9.1875 -9.71875 L 9.828125 -9.71875 L 9.828125 -4.96875 L 9.1875 -4.96875 C 9.03125 -5.164062 8.894531 -5.367188 8.78125 -5.578125 C 8.519531 -6.046875 8.335938 -6.546875 8.234375 -7.078125 L 5.8125 -7.078125 L 5.8125 -0.640625 L 7.078125 -0.3125 L 7.078125 0 L 1.0625 0 Z M 1.0625 -0.3125 "/></g></g></g><g fill="#1a3038" fill-opacity="1"><g transform="translate(160.074666, 368.669167)"><g><path d="M 3.703125 -0.3125 L 4.96875 -0.640625 L 4.96875 -14.265625 L 2.53125 -14.265625 C 2.53125 -13.398438 2.300781 -12.570312 1.84375 -11.78125 C 1.644531 -11.457031 1.414062 -11.191406 1.15625 -10.984375 L 0.53125 -10.984375 L 0.53125 -14.78125 L 12.890625 -14.78125 L 12.890625 -10.984375 L 12.25 -10.984375 C 11.976562 -11.191406 11.75 -11.457031 11.5625 -11.78125 C 11.101562 -12.539062 10.875 -13.367188 10.875 -14.265625 L 8.453125 -14.265625 L 8.453125 -0.640625 L 9.71875 -0.3125 L 9.71875 0 L 3.703125 0 Z M 3.703125 -0.3125 "/></g></g></g><g fill="#1a3038" fill-opacity="1"><g transform="translate(183.888578, 368.669167)"><g><path d="M 0.734375 -14.265625 L -0.421875 -14.46875 L -0.421875 -14.78125 L 2.109375 -14.78125 C 2.859375 -14.78125 3.472656 -14.613281 3.953125 -14.28125 C 4.429688 -13.945312 4.769531 -13.515625 4.96875 -12.984375 L 8.15625 -4.859375 L 10.015625 -10.3125 L 8.453125 -14.265625 L 7.28125 -14.46875 L 7.28125 -14.78125 L 9.828125 -14.78125 C 10.566406 -14.78125 11.171875 -14.613281 11.640625 -14.28125 C 12.109375 -13.957031 12.453125 -13.523438 12.671875 -12.984375 L 15.859375 -4.859375 L 18.90625 -13.84375 L 17.328125 -14.46875 L 17.328125 -14.78125 L 21.234375 -14.78125 L 21.234375 -14.46875 L 19.546875 -13.84375 L 14.78125 0.21875 L 14.15625 0.21875 L 10.34375 -9.4375 L 7.078125 0.21875 L 6.4375 0.21875 Z M 0.734375 -14.265625 "/></g></g></g><g fill="#1a3038" fill-opacity="1"><g transform="translate(215.097015, 368.669167)"><g><path d="M -0.421875 -0.3125 L 1.265625 -0.953125 L 7.078125 -15 L 7.703125 -15 L 13.734375 -0.640625 L 14.78125 -0.3125 L 14.78125 0 L 12.25 0 C 11.519531 0 10.921875 -0.164062 10.453125 -0.5 C 9.992188 -0.832031 9.648438 -1.265625 9.421875 -1.796875 L 8.34375 -4.328125 L 3.296875 -4.328125 L 1.90625 -0.953125 L 3.484375 -0.3125 L 3.484375 0 L -0.421875 0 Z M 3.5 -4.859375 L 8.140625 -4.859375 L 5.8125 -10.421875 Z M 3.5 -4.859375 "/></g></g></g><g fill="#1a3038" fill-opacity="1"><g transform="translate(239.861655, 368.669167)"><g><path d="M 1.0625 -0.3125 L 2.328125 -0.640625 L 2.328125 -14.15625 L 1.0625 -14.46875 L 1.0625 -14.78125 L 6.65625 -14.78125 C 9.050781 -14.78125 10.773438 -14.414062 11.828125 -13.6875 C 12.890625 -12.96875 13.421875 -11.960938 13.421875 -10.671875 C 13.421875 -9.796875 13.1875 -9.085938 12.71875 -8.546875 C 12.25 -8.003906 11.648438 -7.597656 10.921875 -7.328125 C 10.148438 -7.035156 9.328125 -6.878906 8.453125 -6.859375 L 8.453125 -6.765625 C 8.972656 -6.734375 9.429688 -6.65625 9.828125 -6.53125 C 10.804688 -6.21875 11.472656 -5.660156 11.828125 -4.859375 L 13.734375 -0.640625 L 14.78125 -0.3125 L 14.78125 0 L 11.828125 0 C 10.671875 0 9.828125 -0.597656 9.296875 -1.796875 L 7.1875 -6.546875 L 5.8125 -6.546875 L 5.8125 -0.640625 L 7.28125 -0.3125 L 7.28125 0 L 1.0625 0 Z M 6.65625 -7.078125 C 7.644531 -7.078125 8.421875 -7.382812 8.984375 -8 C 9.546875 -8.625 9.828125 -9.515625 9.828125 -10.671875 C 9.828125 -11.828125 9.546875 -12.710938 8.984375 -13.328125 C 8.421875 -13.953125 7.644531 -14.265625 6.65625 -14.265625 L 5.8125 -14.265625 L 5.8125 -7.078125 Z M 6.65625 -7.078125 "/></g></g></g><g fill="#1a3038" fill-opacity="1"><g transform="translate(265.048839, 368.669167)"><g><path d="M 1.0625 -0.3125 L 2.328125 -0.640625 L 2.328125 -14.15625 L 1.0625 -14.46875 L 1.0625 -14.78125 L 12.359375 -14.78125 L 12.359375 -10.984375 L 11.71875 -10.984375 C 11.457031 -11.191406 11.226562 -11.457031 11.03125 -11.78125 C 10.570312 -12.539062 10.34375 -13.367188 10.34375 -14.265625 L 5.8125 -14.265625 L 5.8125 -7.609375 L 8.234375 -7.609375 C 8.335938 -8.140625 8.519531 -8.640625 8.78125 -9.109375 C 8.894531 -9.316406 9.03125 -9.519531 9.1875 -9.71875 L 9.828125 -9.71875 L 9.828125 -4.96875 L 9.1875 -4.96875 C 9.03125 -5.164062 8.894531 -5.367188 8.78125 -5.578125 C 8.519531 -6.046875 8.335938 -6.546875 8.234375 -7.078125 L 5.8125 -7.078125 L 5.8125 -0.53125 L 10.78125 -0.53125 C 10.78125 -1.414062 11.003906 -2.238281 11.453125 -3 C 11.648438 -3.320312 11.878906 -3.585938 12.140625 -3.796875 L 12.78125 -3.796875 L 12.78125 0 L 1.0625 0 Z M 1.0625 -0.3125 "/></g></g></g><g clip-path="url(#8743b83961)"><path fill="#075755" d="M 183.171875 16.351562 C 177.804688 16.351562 172.78125 18.726562 169.382812 22.875 L 95.480469 113.015625 C 95.339844 113.183594 95.324219 113.320312 95.417969 113.515625 C 95.511719 113.710938 95.625 113.785156 95.84375 113.785156 L 140.703125 113.785156 C 140.847656 113.785156 140.976562 113.722656 141.066406 113.613281 L 176.101562 70.882812 C 176.472656 70.429688 176.886719 70.011719 177.332031 69.640625 C 177.351562 69.621094 177.375 69.601562 177.394531 69.582031 L 177.523438 69.457031 C 177.59375 69.394531 177.660156 69.328125 177.726562 69.265625 C 177.785156 69.210938 177.839844 69.160156 177.894531 69.105469 L 178.027344 68.988281 C 178.097656 68.917969 178.167969 68.851562 178.242188 68.785156 C 178.296875 68.734375 178.351562 68.683594 178.40625 68.632812 L 178.539062 68.515625 C 178.613281 68.445312 178.683594 68.378906 178.757812 68.316406 C 178.808594 68.269531 178.863281 68.222656 178.914062 68.175781 L 179.050781 68.050781 C 179.128906 67.984375 179.203125 67.917969 179.277344 67.851562 C 179.328125 67.808594 179.378906 67.761719 179.429688 67.71875 L 179.566406 67.597656 C 179.644531 67.53125 179.722656 67.464844 179.800781 67.394531 C 179.851562 67.351562 179.898438 67.308594 179.949219 67.269531 L 180.078125 67.160156 C 180.160156 67.085938 180.246094 67.015625 180.328125 66.945312 L 180.589844 66.726562 C 180.683594 66.652344 180.769531 66.578125 180.859375 66.503906 C 180.902344 66.464844 180.949219 66.429688 180.996094 66.394531 L 181.109375 66.300781 C 181.203125 66.222656 181.296875 66.148438 181.390625 66.070312 L 181.652344 65.863281 C 181.746094 65.789062 181.839844 65.71875 181.929688 65.644531 L 182.171875 65.453125 C 182.269531 65.378906 182.371094 65.300781 182.46875 65.226562 L 182.699219 65.050781 C 182.800781 64.96875 182.90625 64.894531 183.011719 64.8125 L 183.238281 64.644531 C 183.34375 64.566406 183.449219 64.488281 183.558594 64.410156 L 183.769531 64.257812 C 183.882812 64.175781 183.992188 64.09375 184.105469 64.015625 L 184.316406 63.863281 C 184.429688 63.785156 184.542969 63.703125 184.65625 63.625 L 184.828125 63.507812 C 184.953125 63.421875 185.082031 63.332031 185.210938 63.246094 L 185.386719 63.128906 C 185.511719 63.042969 185.640625 62.957031 185.769531 62.871094 L 185.933594 62.765625 C 186.0625 62.679688 186.195312 62.59375 186.328125 62.507812 L 186.492188 62.402344 C 186.625 62.320312 186.757812 62.234375 186.890625 62.148438 L 187.035156 62.0625 C 187.179688 61.972656 187.316406 61.886719 187.457031 61.800781 L 187.597656 61.714844 C 187.742188 61.628906 187.882812 61.542969 188.027344 61.457031 L 188.164062 61.378906 C 188.308594 61.292969 188.453125 61.207031 188.597656 61.125 L 188.734375 61.046875 C 188.878906 60.964844 189.023438 60.882812 189.167969 60.796875 L 189.300781 60.726562 C 189.449219 60.644531 189.597656 60.5625 189.746094 60.480469 L 189.867188 60.414062 C 190.023438 60.332031 190.171875 60.25 190.324219 60.171875 L 190.4375 60.109375 C 190.59375 60.027344 190.75 59.945312 190.902344 59.867188 L 191.015625 59.8125 C 191.175781 59.730469 191.332031 59.652344 191.488281 59.574219 L 191.59375 59.523438 C 191.753906 59.441406 191.914062 59.363281 192.070312 59.289062 L 192.191406 59.230469 C 192.34375 59.15625 192.503906 59.082031 192.660156 59.007812 L 192.769531 58.960938 C 192.925781 58.886719 193.089844 58.8125 193.25 58.742188 L 193.347656 58.695312 C 193.515625 58.621094 193.675781 58.550781 193.839844 58.476562 L 193.941406 58.433594 C 194.105469 58.363281 194.269531 58.292969 194.433594 58.222656 L 194.53125 58.183594 C 194.695312 58.117188 194.859375 58.046875 195.027344 57.980469 L 195.121094 57.941406 C 195.289062 57.875 195.457031 57.808594 195.625 57.742188 L 195.710938 57.707031 C 195.886719 57.640625 196.054688 57.574219 196.226562 57.511719 L 196.308594 57.480469 C 196.484375 57.417969 196.652344 57.351562 196.824219 57.292969 L 196.917969 57.257812 C 197.085938 57.199219 197.257812 57.136719 197.429688 57.078125 L 197.519531 57.050781 C 197.691406 56.988281 197.863281 56.929688 198.035156 56.875 L 198.117188 56.847656 C 198.289062 56.789062 198.464844 56.734375 198.640625 56.679688 L 198.714844 56.65625 C 198.890625 56.597656 199.070312 56.542969 199.246094 56.492188 L 199.320312 56.46875 C 199.496094 56.417969 199.675781 56.363281 199.855469 56.3125 L 199.933594 56.289062 C 200.105469 56.238281 200.289062 56.191406 200.46875 56.140625 L 200.546875 56.117188 C 200.722656 56.074219 200.898438 56.023438 201.078125 55.980469 L 201.160156 55.960938 C 201.335938 55.914062 201.515625 55.867188 201.691406 55.824219 L 201.75 55.8125 C 201.941406 55.765625 202.125 55.722656 202.304688 55.679688 L 202.386719 55.660156 C 202.5625 55.621094 202.742188 55.582031 202.921875 55.542969 L 202.984375 55.53125 C 203.175781 55.488281 203.355469 55.453125 203.539062 55.414062 L 203.597656 55.402344 C 203.789062 55.363281 203.972656 55.328125 204.15625 55.296875 L 204.214844 55.285156 C 204.40625 55.25 204.589844 55.214844 204.777344 55.183594 L 204.835938 55.175781 C 205.023438 55.140625 205.210938 55.113281 205.398438 55.082031 L 205.457031 55.074219 C 205.640625 55.042969 205.832031 55.015625 206.019531 54.988281 L 206.074219 54.980469 C 206.261719 54.953125 206.453125 54.929688 206.640625 54.902344 L 206.695312 54.898438 C 206.886719 54.875 207.074219 54.851562 207.261719 54.828125 L 207.292969 54.828125 C 207.492188 54.800781 207.691406 54.78125 207.886719 54.761719 L 207.921875 54.757812 C 208.121094 54.738281 208.316406 54.71875 208.507812 54.703125 L 208.578125 54.699219 C 208.769531 54.679688 208.953125 54.667969 209.136719 54.652344 L 209.183594 54.648438 C 209.378906 54.636719 209.570312 54.625 209.757812 54.613281 L 209.816406 54.609375 C 210.003906 54.601562 210.195312 54.589844 210.386719 54.582031 L 210.445312 54.578125 C 210.636719 54.570312 210.824219 54.566406 211.011719 54.558594 L 211.085938 54.558594 C 211.269531 54.550781 211.453125 54.546875 211.636719 54.542969 L 211.730469 54.542969 C 211.90625 54.542969 212.085938 54.542969 212.265625 54.539062 L 212.359375 54.542969 C 212.757812 54.542969 213.148438 54.546875 213.519531 54.558594 C 213.5625 54.558594 213.609375 54.5625 213.65625 54.5625 L 213.792969 54.566406 C 213.910156 54.570312 214.027344 54.574219 214.144531 54.578125 C 214.355469 54.589844 214.5625 54.601562 214.773438 54.609375 C 215.175781 54.636719 215.582031 54.664062 215.984375 54.699219 C 218.804688 54.9375 221.582031 55.453125 224.304688 56.230469 L 196.957031 22.875 C 193.558594 18.726562 188.53125 16.351562 183.171875 16.351562 Z M 189.921875 70.515625 C 190.03125 70.636719 190.136719 70.757812 190.238281 70.882812 L 225.273438 113.613281 C 225.363281 113.726562 225.492188 113.785156 225.636719 113.785156 L 270.5 113.785156 C 270.714844 113.785156 270.832031 113.710938 270.921875 113.515625 C 271.015625 113.320312 271 113.179688 270.863281 113.015625 L 243.226562 79.304688 L 243.183594 79.257812 C 243.085938 79.136719 242.984375 79.015625 242.886719 78.898438 L 242.792969 78.789062 C 242.734375 78.71875 242.675781 78.648438 242.617188 78.578125 L 242.171875 78.0625 C 242.121094 78 242.066406 77.941406 242.015625 77.878906 L 241.890625 77.742188 C 241.800781 77.636719 241.710938 77.535156 241.617188 77.433594 L 241.585938 77.394531 C 234.234375 69.207031 225.347656 64.363281 215.882812 63.386719 C 215.710938 63.367188 215.535156 63.351562 215.363281 63.335938 L 215.277344 63.328125 C 214.949219 63.296875 214.609375 63.273438 214.273438 63.257812 C 214.019531 63.242188 213.75 63.230469 213.445312 63.21875 L 213.347656 63.214844 C 213.09375 63.207031 212.828125 63.203125 212.550781 63.203125 L 212.433594 63.199219 C 212.15625 63.199219 211.886719 63.203125 211.632812 63.207031 L 211.546875 63.207031 C 210.972656 63.21875 210.398438 63.246094 209.835938 63.285156 L 209.800781 63.289062 C 209.53125 63.304688 209.257812 63.332031 208.964844 63.359375 L 208.882812 63.363281 C 208.605469 63.394531 208.328125 63.421875 208.058594 63.457031 L 207.988281 63.460938 C 207.125 63.570312 206.253906 63.707031 205.394531 63.875 L 205.324219 63.890625 C 205.054688 63.941406 204.777344 64 204.503906 64.0625 L 204.429688 64.078125 C 204.136719 64.144531 203.855469 64.210938 203.589844 64.277344 L 203.566406 64.28125 C 203 64.421875 202.425781 64.582031 201.855469 64.75 L 201.789062 64.769531 C 201.527344 64.847656 201.253906 64.933594 200.976562 65.023438 L 200.890625 65.050781 C 200.609375 65.144531 200.335938 65.238281 200.078125 65.328125 L 200.019531 65.347656 C 199.464844 65.542969 198.902344 65.753906 198.351562 65.976562 L 198.285156 66.003906 C 198.035156 66.105469 197.765625 66.214844 197.496094 66.335938 L 197.390625 66.378906 C 197.125 66.496094 196.863281 66.609375 196.609375 66.726562 L 196.523438 66.765625 C 196.226562 66.902344 195.964844 67.027344 195.714844 67.148438 L 195.703125 67.152344 C 195.449219 67.277344 195.1875 67.40625 194.902344 67.554688 L 194.835938 67.585938 C 194.589844 67.714844 194.339844 67.84375 194.066406 67.992188 L 193.949219 68.054688 C 193.695312 68.191406 193.445312 68.332031 193.199219 68.46875 L 193.082031 68.539062 C 192.808594 68.691406 192.558594 68.839844 192.324219 68.976562 L 192.261719 69.015625 C 192.015625 69.164062 191.761719 69.320312 191.511719 69.476562 L 191.449219 69.515625 C 191.222656 69.660156 190.976562 69.816406 190.707031 69.992188 L 190.585938 70.070312 C 190.367188 70.21875 190.144531 70.367188 189.921875 70.515625 Z M 270.5 122.441406 L 225.636719 122.441406 C 222.886719 122.441406 220.308594 121.222656 218.566406 119.097656 L 183.535156 76.367188 C 183.382812 76.179688 183.070312 76.144531 182.886719 76.289062 L 182.878906 76.296875 C 182.855469 76.316406 182.828125 76.339844 182.808594 76.363281 L 147.773438 119.097656 C 146.03125 121.222656 143.453125 122.441406 140.703125 122.441406 L 95.84375 122.441406 C 92.273438 122.441406 89.113281 120.441406 87.585938 117.222656 C 86.058594 114 86.511719 110.289062 88.773438 107.53125 L 162.679688 17.386719 C 167.726562 11.226562 175.199219 7.691406 183.171875 7.691406 C 191.140625 7.691406 198.609375 11.226562 203.660156 17.386719 L 249.851562 73.726562 C 249.886719 73.765625 249.917969 73.804688 249.945312 73.839844 L 277.566406 107.53125 C 279.828125 110.289062 280.28125 114 278.753906 117.222656 C 277.230469 120.441406 274.066406 122.441406 270.5 122.441406 " fill-opacity="1" fill-rule="nonzero"/></g><g clip-path="url(#4353fa9754)"><path fill="#0c918e" d="M 183.324219 244.109375 C 188.6875 244.109375 193.714844 241.730469 197.109375 237.585938 L 271.015625 147.441406 C 271.152344 147.273438 271.167969 147.140625 271.078125 146.941406 C 270.980469 146.746094 270.867188 146.675781 270.652344 146.675781 L 225.789062 146.675781 C 225.644531 146.675781 225.519531 146.734375 225.425781 146.847656 L 190.390625 189.578125 C 190.019531 190.03125 189.605469 190.445312 189.160156 190.816406 C 189.140625 190.835938 189.121094 190.855469 189.097656 190.875 L 188.96875 191 C 188.898438 191.0625 188.832031 191.128906 188.765625 191.195312 C 188.707031 191.246094 188.652344 191.300781 188.597656 191.351562 L 188.464844 191.472656 C 188.394531 191.539062 188.324219 191.605469 188.25 191.671875 C 188.195312 191.722656 188.140625 191.773438 188.085938 191.824219 L 187.953125 191.945312 C 187.882812 192.011719 187.808594 192.078125 187.734375 192.144531 C 187.683594 192.191406 187.628906 192.234375 187.578125 192.28125 L 187.441406 192.40625 C 187.367188 192.472656 187.289062 192.539062 187.214844 192.605469 C 187.164062 192.652344 187.113281 192.695312 187.0625 192.742188 L 186.925781 192.859375 C 186.847656 192.925781 186.769531 192.996094 186.691406 193.0625 C 186.640625 193.105469 186.59375 193.148438 186.542969 193.191406 L 186.414062 193.300781 C 186.332031 193.371094 186.25 193.441406 186.164062 193.511719 L 185.902344 193.734375 C 185.8125 193.808594 185.722656 193.882812 185.632812 193.957031 C 185.589844 193.992188 185.542969 194.027344 185.496094 194.066406 L 185.382812 194.160156 C 185.289062 194.234375 185.195312 194.3125 185.101562 194.386719 L 184.839844 194.597656 C 184.746094 194.667969 184.65625 194.742188 184.566406 194.8125 L 184.320312 195.003906 C 184.222656 195.078125 184.125 195.15625 184.027344 195.234375 L 183.792969 195.410156 C 183.691406 195.488281 183.585938 195.566406 183.484375 195.644531 L 183.253906 195.8125 C 183.148438 195.894531 183.042969 195.96875 182.9375 196.046875 L 182.722656 196.203125 C 182.613281 196.28125 182.5 196.363281 182.386719 196.445312 L 182.175781 196.59375 C 182.0625 196.671875 181.949219 196.753906 181.835938 196.832031 L 181.664062 196.949219 C 181.539062 197.035156 181.410156 197.125 181.28125 197.210938 L 181.109375 197.328125 C 180.980469 197.414062 180.851562 197.5 180.722656 197.585938 L 180.5625 197.691406 C 180.429688 197.777344 180.296875 197.867188 180.164062 197.949219 L 180 198.054688 C 179.867188 198.140625 179.734375 198.222656 179.601562 198.308594 L 179.457031 198.398438 C 179.3125 198.484375 179.175781 198.570312 179.035156 198.65625 L 178.894531 198.742188 C 178.75 198.828125 178.609375 198.914062 178.464844 199 L 178.328125 199.082031 C 178.183594 199.164062 178.042969 199.25 177.894531 199.332031 L 177.757812 199.414062 C 177.613281 199.496094 177.46875 199.578125 177.324219 199.660156 L 177.191406 199.730469 C 177.042969 199.8125 176.894531 199.898438 176.746094 199.976562 L 176.625 200.042969 C 176.46875 200.128906 176.320312 200.207031 176.167969 200.285156 L 176.054688 200.347656 C 175.898438 200.429688 175.742188 200.511719 175.589844 200.589844 L 175.476562 200.648438 C 175.316406 200.730469 175.160156 200.808594 175.003906 200.882812 L 174.898438 200.9375 C 174.738281 201.015625 174.578125 201.09375 174.421875 201.167969 L 174.300781 201.226562 C 174.148438 201.300781 173.992188 201.375 173.832031 201.449219 L 173.722656 201.5 C 173.566406 201.574219 173.40625 201.644531 173.246094 201.71875 L 173.144531 201.765625 C 172.976562 201.835938 172.816406 201.910156 172.652344 201.980469 L 172.550781 202.023438 C 172.390625 202.09375 172.222656 202.164062 172.058594 202.234375 L 171.964844 202.273438 C 171.800781 202.34375 171.632812 202.410156 171.464844 202.480469 L 171.371094 202.519531 C 171.203125 202.585938 171.035156 202.652344 170.867188 202.71875 L 170.78125 202.75 C 170.605469 202.816406 170.4375 202.882812 170.265625 202.945312 L 170.183594 202.976562 C 170.011719 203.042969 169.839844 203.105469 169.667969 203.167969 L 169.578125 203.199219 C 169.40625 203.261719 169.234375 203.320312 169.0625 203.378906 L 168.976562 203.410156 C 168.800781 203.46875 168.628906 203.527344 168.460938 203.582031 L 168.378906 203.613281 C 168.203125 203.667969 168.027344 203.726562 167.851562 203.78125 L 167.78125 203.800781 C 167.601562 203.859375 167.421875 203.914062 167.246094 203.96875 L 167.171875 203.988281 C 166.996094 204.042969 166.816406 204.09375 166.636719 204.148438 L 166.558594 204.167969 C 166.386719 204.21875 166.207031 204.269531 166.027344 204.316406 L 165.945312 204.339844 C 165.769531 204.386719 165.59375 204.433594 165.414062 204.480469 L 165.332031 204.5 C 165.15625 204.546875 164.980469 204.589844 164.800781 204.632812 L 164.742188 204.648438 C 164.550781 204.695312 164.367188 204.738281 164.1875 204.777344 L 164.105469 204.796875 C 163.929688 204.835938 163.75 204.875 163.570312 204.914062 L 163.507812 204.929688 C 163.316406 204.96875 163.136719 205.007812 162.953125 205.042969 L 162.898438 205.054688 C 162.703125 205.09375 162.519531 205.128906 162.335938 205.164062 L 162.277344 205.171875 C 162.089844 205.207031 161.902344 205.242188 161.714844 205.273438 L 161.65625 205.28125 C 161.46875 205.316406 161.28125 205.347656 161.09375 205.375 L 161.035156 205.386719 C 160.851562 205.414062 160.664062 205.441406 160.476562 205.46875 L 160.417969 205.476562 C 160.230469 205.503906 160.039062 205.53125 159.851562 205.554688 L 159.796875 205.558594 C 159.609375 205.585938 159.417969 205.609375 159.230469 205.628906 L 159.203125 205.632812 C 159 205.65625 158.804688 205.679688 158.605469 205.695312 L 158.570312 205.699219 C 158.371094 205.71875 158.175781 205.738281 157.984375 205.753906 L 157.914062 205.761719 C 157.722656 205.777344 157.539062 205.792969 157.355469 205.804688 L 157.308594 205.808594 C 157.113281 205.820312 156.925781 205.835938 156.734375 205.84375 L 156.679688 205.847656 C 156.488281 205.859375 156.296875 205.867188 156.109375 205.875 L 156.046875 205.878906 C 155.855469 205.886719 155.667969 205.894531 155.480469 205.898438 L 155.410156 205.902344 C 155.222656 205.90625 155.039062 205.910156 154.855469 205.914062 L 154.761719 205.914062 C 154.585938 205.917969 154.40625 205.917969 154.230469 205.917969 L 154.132812 205.917969 C 153.734375 205.917969 153.34375 205.910156 152.976562 205.902344 C 152.929688 205.898438 152.882812 205.898438 152.835938 205.894531 L 152.699219 205.890625 C 152.582031 205.886719 152.464844 205.882812 152.347656 205.878906 C 152.140625 205.867188 151.929688 205.859375 151.722656 205.847656 C 151.316406 205.824219 150.910156 205.792969 150.507812 205.761719 C 147.691406 205.519531 144.910156 205.007812 142.1875 204.226562 L 169.535156 237.585938 C 172.933594 241.730469 177.960938 244.109375 183.324219 244.109375 Z M 176.570312 189.941406 C 176.460938 189.824219 176.355469 189.703125 176.253906 189.578125 L 141.21875 146.847656 C 141.128906 146.734375 141 146.675781 140.855469 146.675781 L 95.996094 146.675781 C 95.777344 146.675781 95.660156 146.746094 95.570312 146.941406 C 95.476562 147.136719 95.496094 147.277344 95.632812 147.441406 L 123.269531 181.152344 L 123.308594 181.203125 C 123.40625 181.320312 123.507812 181.441406 123.605469 181.5625 L 123.699219 181.671875 C 123.757812 181.742188 123.816406 181.8125 123.875 181.878906 L 124.320312 182.398438 C 124.375 182.457031 124.425781 182.519531 124.480469 182.578125 L 124.601562 182.71875 C 124.691406 182.820312 124.78125 182.921875 124.875 183.027344 L 124.910156 183.066406 C 132.257812 191.25 141.144531 196.097656 150.609375 197.074219 C 150.78125 197.089844 150.957031 197.109375 151.128906 197.125 L 151.214844 197.128906 C 151.542969 197.160156 151.882812 197.183594 152.21875 197.203125 C 152.472656 197.214844 152.746094 197.230469 153.046875 197.238281 L 153.144531 197.242188 C 153.398438 197.25 153.667969 197.253906 153.941406 197.257812 L 154.058594 197.257812 C 154.335938 197.257812 154.605469 197.257812 154.863281 197.253906 L 154.945312 197.25 C 155.519531 197.238281 156.09375 197.214844 156.65625 197.175781 L 156.691406 197.171875 C 156.960938 197.152344 157.234375 197.128906 157.527344 197.101562 L 157.609375 197.09375 C 157.886719 197.066406 158.164062 197.035156 158.433594 197.003906 L 158.503906 196.996094 C 159.367188 196.890625 160.238281 196.75 161.097656 196.582031 L 161.171875 196.570312 C 161.4375 196.515625 161.714844 196.457031 161.992188 196.394531 L 162.0625 196.378906 C 162.355469 196.3125 162.636719 196.246094 162.902344 196.183594 L 162.925781 196.175781 C 163.492188 196.035156 164.066406 195.878906 164.636719 195.707031 L 164.703125 195.6875 C 164.964844 195.609375 165.238281 195.523438 165.515625 195.433594 L 165.601562 195.40625 C 165.882812 195.316406 166.15625 195.222656 166.414062 195.132812 L 166.472656 195.113281 C 167.027344 194.914062 167.589844 194.703125 168.140625 194.480469 L 168.207031 194.453125 C 168.457031 194.351562 168.726562 194.242188 169 194.125 L 169.101562 194.078125 C 169.367188 193.964844 169.628906 193.847656 169.882812 193.734375 L 169.972656 193.691406 C 170.265625 193.554688 170.527344 193.433594 170.777344 193.3125 L 170.789062 193.304688 C 171.042969 193.183594 171.304688 193.050781 171.589844 192.90625 L 171.660156 192.871094 C 171.902344 192.746094 172.15625 192.613281 172.425781 192.46875 L 172.542969 192.402344 C 172.796875 192.265625 173.046875 192.128906 173.292969 191.988281 L 173.410156 191.921875 C 173.683594 191.765625 173.933594 191.621094 174.167969 191.480469 L 174.230469 191.441406 C 174.476562 191.292969 174.730469 191.136719 174.980469 190.980469 L 175.042969 190.941406 C 175.269531 190.800781 175.515625 190.640625 175.789062 190.464844 L 175.910156 190.386719 C 176.125 190.242188 176.347656 190.09375 176.570312 189.941406 Z M 95.996094 138.015625 L 140.855469 138.015625 C 143.609375 138.015625 146.183594 139.234375 147.925781 141.363281 L 182.957031 184.089844 C 183.113281 184.277344 183.421875 184.316406 183.609375 184.167969 L 183.613281 184.164062 C 183.640625 184.144531 183.664062 184.121094 183.683594 184.09375 L 218.71875 141.359375 C 220.464844 139.234375 223.039062 138.015625 225.789062 138.015625 L 270.652344 138.015625 C 274.21875 138.015625 277.382812 140.015625 278.910156 143.234375 C 280.4375 146.457031 279.980469 150.171875 277.71875 152.929688 L 203.8125 243.070312 C 198.765625 249.230469 191.292969 252.765625 183.324219 252.765625 C 175.351562 252.765625 167.882812 249.230469 162.832031 243.070312 L 116.640625 186.730469 C 116.609375 186.695312 116.574219 186.65625 116.546875 186.617188 L 88.925781 152.929688 C 86.664062 150.171875 86.210938 146.457031 87.738281 143.234375 C 89.261719 140.015625 92.425781 138.015625 95.996094 138.015625 " fill-opacity="1" fill-rule="nonzero"/></g></svg>